<svg xmlns="http://www.w3.org/2000/svg" viewBox="0 0 893 240.31"><defs><style>.cls-1{fill:#fff;}</style></defs><title>compagnieDuCode</title><g id="_" data-name="&lt;"><path class="cls-1" d="M125.75,190.87l78.51-59.92V71L85.47,161.69a36.7,36.7,0,0,0,0,58.35l118.79,90.66V250.79Z" transform="translate(-71.03 -71.03)"/></g><g id="LCDC"><path class="cls-1" d="M255.45,156.72H285.9a1.83,1.83,0,0,1,2,2v12.79a1.78,1.78,0,0,1-2,2H240.1a1.83,1.83,0,0,1-2-2V73.31a1.88,1.88,0,0,1,2-2h13.3a1.83,1.83,0,0,1,2,2Z" transform="translate(-71.03 -71.03)"/><path class="cls-1" d="M346.28,173.61a2,2,0,0,1-2-1.79l-3.58-18.68H317.88l-3.45,18.68a2,2,0,0,1-2,1.79H298.69c-1.41,0-2-.77-1.66-2.17l21.24-98.38a2,2,0,0,1,2.17-1.79h17.78a2,2,0,0,1,2.17,1.79l21.24,98.38c.26,1.41-.26,2.17-1.79,2.17Zm-17-80-8.19,44.65h16.38Z" transform="translate(-71.03 -71.03)"/><path class="cls-1" d="M456.42,103.5a1.88,1.88,0,0,1-2,2H441.58a1.83,1.83,0,0,1-2-2V93.27c0-3.33-1.79-5.12-5.12-5.12h-6.65c-3.45,0-5.12,1.79-5.12,5.12v58.34c0,3.45,1.79,5.12,5.12,5.12h6.65c3.33,0,5.12-1.66,5.12-5.12V141.37a1.83,1.83,0,0,1,2-2h12.79a1.88,1.88,0,0,1,2,2v13.82c0,12-6.52,18.42-18.42,18.42H423.67c-12,0-18.55-6.4-18.55-18.42V89.69c0-12,6.52-18.42,18.55-18.42H438c11.9,0,18.42,6.4,18.42,18.42Z" transform="translate(-71.03 -71.03)"/><path class="cls-1" d="M469.21,89.69c0-12,6.4-18.42,18.42-18.42H502c12,0,18.42,6.4,18.42,18.42v65.5c0,12-6.4,18.42-18.42,18.42H487.64c-12,0-18.42-6.4-18.42-18.42Zm29.55,67.42c3.33,0,5.12-1.66,5.12-5.12V92.89c0-3.33-1.79-5.12-5.12-5.12h-7.42c-3.33,0-5.12,1.79-5.12,5.12V152c0,3.45,1.79,5.12,5.12,5.12Z" transform="translate(-71.03 -71.03)"/><path class="cls-1" d="M603.54,71.27a2.3,2.3,0,0,1,2.56,2.56v97.23a2.3,2.3,0,0,1-2.56,2.56h-11.9a2.3,2.3,0,0,1-2.56-2.56V113.48h-.9l-12.67,57.83a2.66,2.66,0,0,1-2.81,2.3h-6.27a2.66,2.66,0,0,1-2.81-2.3L551,113.48h-.9v57.57a2.3,2.3,0,0,1-2.56,2.56H535.73a2.3,2.3,0,0,1-2.56-2.56V73.82a2.3,2.3,0,0,1,2.56-2.56h16.89a2.66,2.66,0,0,1,2.81,2.3l14.2,63.71,14.2-63.71a2.66,2.66,0,0,1,2.81-2.3Z" transform="translate(-71.03 -71.03)"/><path class="cls-1" d="M618.89,73.31a1.88,1.88,0,0,1,2-2h30.7c12,0,18.42,6.4,18.42,18.42V120.9c0,11.9-6.4,18.42-18.42,18.42H636.29v32.24a1.83,1.83,0,0,1-2,2h-13.3a1.88,1.88,0,0,1-2-2Zm28.66,49.13c3.45,0,5.12-1.92,5.12-5.12V93.27c0-3.33-1.66-5.12-5.12-5.12H636.29v34.29Z" transform="translate(-71.03 -71.03)"/><path class="cls-1" d="M724.56,173.61a2,2,0,0,1-2-1.79l-3.58-18.68H696.16l-3.45,18.68a2,2,0,0,1-2,1.79H677c-1.41,0-2-.77-1.66-2.17l21.24-98.38a2,2,0,0,1,2.17-1.79H716.5a2,2,0,0,1,2.17,1.79l21.24,98.38c.26,1.41-.26,2.17-1.79,2.17Zm-17-80-8.19,44.65h16.38Z" transform="translate(-71.03 -71.03)"/><path class="cls-1" d="M748.86,89.69c0-12,6.4-18.42,18.42-18.42h16.89c11.9,0,18.42,6.4,18.42,18.42V103a1.88,1.88,0,0,1-2,2H787.75a1.83,1.83,0,0,1-2-2V93.27c0-3.33-1.79-5.12-5.12-5.12h-9.21c-3.45,0-5.12,1.79-5.12,5.12v58.34c0,3.45,1.79,5.12,5.12,5.12h9.21c3.33,0,5.12-1.66,5.12-5.12V134.46h-6.65a1.83,1.83,0,0,1-2-2V119.62a1.78,1.78,0,0,1,2-2h21.49a1.83,1.83,0,0,1,2,2v35.57c0,12-6.52,18.42-18.42,18.42H767.29c-12,0-18.42-6.4-18.42-18.42Z" transform="translate(-71.03 -71.03)"/><path class="cls-1" d="M868,71.27a1.88,1.88,0,0,1,2,2v98.25a1.88,1.88,0,0,1-2,2H855.3a2.2,2.2,0,0,1-2.3-1.66l-19.57-54.63h-.64v54.24a1.83,1.83,0,0,1-2,2h-13.3a1.88,1.88,0,0,1-2-2V73.31a1.88,1.88,0,0,1,2-2H830.1a2.2,2.2,0,0,1,2.3,1.66l19.45,54.37h.77v-54a1.83,1.83,0,0,1,2-2Z" transform="translate(-71.03 -71.03)"/><path class="cls-1" d="M898.15,71.27a1.88,1.88,0,0,1,2,2v98.25a1.88,1.88,0,0,1-2,2h-13.3a1.83,1.83,0,0,1-2-2V73.31a1.83,1.83,0,0,1,2-2Z" transform="translate(-71.03 -71.03)"/><path class="cls-1" d="M964,86.11c0,1.28-.51,2.18-2,2.18H930v25.59h24.44a1.92,1.92,0,0,1,2,2.17v12.66a1.92,1.92,0,0,1-2,2.17H930v25.84h32c1.54,0,2,.64,2,2v12.79c0,1.28-.51,2-2,2H914.91a1.85,1.85,0,0,1-1.92-2V73.31a1.85,1.85,0,0,1,1.92-2H962c1.54,0,2,.77,2,2Z" transform="translate(-71.03 -71.03)"/><path class="cls-1" d="M565.83,211.39a1.8,1.8,0,0,1,2-2h30.34c11.88,0,18.2,6.45,18.2,18.33v64.6c0,11.88-6.32,18.2-18.2,18.2H567.85a1.76,1.76,0,0,1-2-2Zm28.82,82.43c3.29,0,5.06-1.64,5.06-5.06V231.24c0-3.41-1.77-5.18-5.06-5.18H583v67.76Z" transform="translate(-71.03 -71.03)"/><path class="cls-1" d="M677.08,209.37a2.54,2.54,0,0,1,2.53,2.53v80.4c0,11.88-6.32,18.2-18.2,18.2H647.24c-11.88,0-18.2-6.32-18.2-18.2V211.9a2.54,2.54,0,0,1,2.53-2.53H643.7a2.54,2.54,0,0,1,2.53,2.53v76.86c0,3.41,1.77,5.06,5.06,5.06h6.57c3.29,0,5.06-1.64,5.06-5.06V211.9a2.54,2.54,0,0,1,2.53-2.53Z" transform="translate(-71.03 -71.03)"/><path class="cls-1" d="M774.54,241.23a1.86,1.86,0,0,1-2,2H759.88a1.8,1.8,0,0,1-2-2V231.11c0-3.29-1.77-5.06-5.06-5.06h-6.57c-3.41,0-5.06,1.77-5.06,5.06v57.65c0,3.41,1.77,5.06,5.06,5.06h6.57c3.29,0,5.06-1.64,5.06-5.06V278.65a1.8,1.8,0,0,1,2-2h12.64a1.86,1.86,0,0,1,2,2V292.3c0,11.88-6.45,18.2-18.2,18.2H742.18c-11.88,0-18.33-6.32-18.33-18.2V227.57c0-11.88,6.45-18.2,18.33-18.2h14.16c11.76,0,18.2,6.32,18.2,18.2Z" transform="translate(-71.03 -71.03)"/><path class="cls-1" d="M787.18,227.57c0-11.88,6.32-18.2,18.2-18.2h14.16c11.88,0,18.2,6.32,18.2,18.2V292.3c0,11.88-6.32,18.2-18.2,18.2H805.38c-11.88,0-18.2-6.32-18.2-18.2Zm29.2,66.62c3.29,0,5.06-1.64,5.06-5.06V230.73c0-3.29-1.77-5.06-5.06-5.06h-7.33c-3.29,0-5.06,1.77-5.06,5.06v58.41c0,3.41,1.77,5.06,5.06,5.06Z" transform="translate(-71.03 -71.03)"/><path class="cls-1" d="M850.39,211.39a1.8,1.8,0,0,1,2-2h30.34c11.88,0,18.2,6.45,18.2,18.33v64.6c0,11.88-6.32,18.2-18.2,18.2H852.41a1.76,1.76,0,0,1-2-2Zm28.82,82.43c3.29,0,5.06-1.64,5.06-5.06V231.24c0-3.41-1.77-5.18-5.06-5.18H867.58v67.76Z" transform="translate(-71.03 -71.03)"/><path class="cls-1" d="M964,224c0,1.26-.51,2.15-2,2.15h-31.6v25.28h24.15a1.9,1.9,0,0,1,2,2.15v12.52a1.9,1.9,0,0,1-2,2.15H930.41v25.54H962c1.52,0,2,.63,2,2v12.64c0,1.26-.51,2-2,2H915.49a1.83,1.83,0,0,1-1.9-2V211.39a1.83,1.83,0,0,1,1.9-2H962c1.52,0,2,.76,2,2Z" transform="translate(-71.03 -71.03)"/><path class="cls-1" d="M304,251.15a43.64,43.64,0,0,1-9.2.72c-6.82,0-14.63-3.66-14.63-17.13V227c0-13.58,7.82-17.13,14.63-17.13a59.74,59.74,0,0,1,9.31.89c.5.06.89.22.89.72v2.83c0,.33-.11.61-.67.61h-.17c-2-.17-6.1-.5-9.31-.5-5.43,0-9.65,3.16-9.65,12.58v7.71c0,9.31,4.21,12.58,9.65,12.58,3.16,0,7.15-.28,9.15-.44h.22a.77.77,0,0,1,.89.89V250C305.08,250.7,304.59,251,304,251.15Z" transform="translate(-71.03 -71.03)"/><path class="cls-1" d="M338.9,251.48H335c-.67,0-.78,0-1.22-.72l-9.92-16.52h-1.44c-1.83,0-4.71-.11-6.1-.17v16.3a1.05,1.05,0,0,1-1,1.11h-3a1.06,1.06,0,0,1-1-1.11v-38.8c0-.78.33-1.11,1.33-1.22,2.38-.28,6.54-.44,9.76-.44,8.76,0,15.52,2.94,15.52,11.92v.39c0,6.21-3.66,9.87-8.7,11.2l10.2,17a.9.9,0,0,1,.17.5C339.62,251.26,339.39,251.48,338.9,251.48ZM333,221.82c0-5.54-3.6-7.37-10.53-7.37-1.72,0-4.77,0-6.1.17V229.8c1.16,0,4.82.11,6.1.11,6.82,0,10.53-1.72,10.53-7.71Z" transform="translate(-71.03 -71.03)"/><path class="cls-1" d="M368.61,251.59c-2.11.22-7.54.28-10.81.28-7.76,0-11.81-2.94-11.81-10.31V220.21c0-7.37,4-10.31,11.81-10.31,3.27,0,8.48.11,10.81.33a.78.78,0,0,1,.55.78v2.77a.6.6,0,0,1-.61.67h-10.7c-5.88,0-6.82,1.55-6.82,5.76v7.71h17a1.11,1.11,0,0,1,1.11,1.11v2.11a1.11,1.11,0,0,1-1.11,1.11H351v9.31c0,4.21.94,5.77,6.82,5.77h10.7a.6.6,0,0,1,.61.67v2.83A.78.78,0,0,1,368.61,251.59Z" transform="translate(-71.03 -71.03)"/><path class="cls-1" d="M399.15,251.59c-2.11.22-7.54.28-10.81.28-7.76,0-11.81-2.94-11.81-10.31V220.21c0-7.37,4-10.31,11.81-10.31,3.27,0,8.48.11,10.81.33a.78.78,0,0,1,.55.78v2.77a.6.6,0,0,1-.61.67h-10.7c-5.88,0-6.82,1.55-6.82,5.76v7.71h17A1.11,1.11,0,0,1,399.7,229v2.11a1.11,1.11,0,0,1-1.11,1.11h-17v9.31c0,4.21.94,5.77,6.82,5.77h10.7a.6.6,0,0,1,.61.67v2.83A.78.78,0,0,1,399.15,251.59Z" transform="translate(-71.03 -71.03)"/><path class="cls-1" d="M434.62,251.48h-3.88c-.67,0-.78,0-1.22-.72l-9.92-16.52h-1.44c-1.83,0-4.71-.11-6.1-.17v16.3a1.05,1.05,0,0,1-1,1.11h-3a1.06,1.06,0,0,1-1-1.11v-38.8c0-.78.33-1.11,1.33-1.22,2.38-.28,6.54-.44,9.76-.44,8.76,0,15.52,2.94,15.52,11.92v.39c0,6.21-3.66,9.87-8.7,11.2l10.2,17a.9.9,0,0,1,.17.5C435.34,251.26,435.12,251.48,434.62,251.48Zm-5.93-29.66c0-5.54-3.6-7.37-10.53-7.37-1.72,0-4.77,0-6.1.17V229.8c1.16,0,4.82.11,6.1.11,6.82,0,10.53-1.72,10.53-7.71Z" transform="translate(-71.03 -71.03)"/><path class="cls-1" d="M303.09,310a43.64,43.64,0,0,1-9.2.72c-6.82,0-14.63-3.66-14.63-17.13v-7.71c0-13.58,7.82-17.13,14.63-17.13a59.74,59.74,0,0,1,9.31.89c.5.06.89.22.89.72v2.83c0,.33-.11.61-.67.61h-.17c-2-.17-6.1-.5-9.31-.5-5.43,0-9.65,3.16-9.65,12.58v7.71c0,9.31,4.21,12.58,9.65,12.58,3.16,0,7.15-.28,9.15-.44h.22a.77.77,0,0,1,.89.89v2.27C304.2,309.54,303.7,309.87,303.09,310Z" transform="translate(-71.03 -71.03)"/><path class="cls-1" d="M324.48,310.71c-8.7,0-15-5.1-15-17.41v-7.15c0-12.31,6.32-17.41,15-17.41s15,5.1,15,17.41v7.15C339.45,305.61,333.19,310.71,324.48,310.71Zm9.87-24.56c0-9.31-3.77-12.86-9.87-12.86s-9.92,3.55-9.92,12.86v7.15c0,9.31,3.82,12.86,9.92,12.86s9.87-3.55,9.87-12.86Z" transform="translate(-71.03 -71.03)"/><path class="cls-1" d="M358.35,310.71a78.18,78.18,0,0,1-10.09-.55,1.27,1.27,0,0,1-1.16-1.39V270.68a1.3,1.3,0,0,1,1.16-1.39,78.36,78.36,0,0,1,10.09-.55c10.26,0,16.8,5.27,16.8,17.24v7.48C375.15,305.33,368.61,310.71,358.35,310.71ZM370.1,286c0-10-5.1-12.92-11.75-12.92-2.61,0-4.32.05-6.15.17v33c1.77.11,3.55.11,6.15.11,6.65,0,11.75-2.94,11.75-12.92Z" transform="translate(-71.03 -71.03)"/><path class="cls-1" d="M405.24,310.43c-2.11.22-7.54.28-10.81.28-7.76,0-11.81-2.94-11.81-10.31V279.05c0-7.37,4-10.31,11.81-10.31,3.27,0,8.48.11,10.81.33a.78.78,0,0,1,.55.78v2.77a.6.6,0,0,1-.61.67h-10.7c-5.88,0-6.82,1.55-6.82,5.76v7.71h17a1.11,1.11,0,0,1,1.11,1.11V290a1.11,1.11,0,0,1-1.11,1.11h-17v9.31c0,4.21.94,5.77,6.82,5.77h10.7a.6.6,0,0,1,.61.67v2.83A.78.78,0,0,1,405.24,310.43Z" transform="translate(-71.03 -71.03)"/><path class="cls-1" d="M440.72,310.32h-3.88c-.67,0-.78,0-1.22-.72l-9.92-16.52h-1.44c-1.83,0-4.71-.11-6.1-.17v16.3a1.05,1.05,0,0,1-1,1.11h-3a1.06,1.06,0,0,1-1-1.11V270.4c0-.78.33-1.11,1.33-1.22,2.38-.28,6.54-.44,9.76-.44,8.76,0,15.52,2.94,15.52,11.92V281c0,6.21-3.66,9.87-8.7,11.2l10.2,17a.9.9,0,0,1,.17.5C441.44,310.1,441.22,310.32,440.72,310.32Zm-5.93-29.66c0-5.54-3.6-7.37-10.53-7.37-1.72,0-4.77,0-6.1.17v15.19c1.16,0,4.82.11,6.1.11,6.82,0,10.53-1.72,10.53-7.71Z" transform="translate(-71.03 -71.03)"/><path class="cls-1" d="M480.66,267.47c.83,0,1.16.5.89,1.27L463,310.46a1.21,1.21,0,0,1-1.28.89h-3.92c-.83,0-1.16-.5-.89-1.27l18.64-41.71a1.21,1.21,0,0,1,1.27-.89Z" transform="translate(-71.03 -71.03)"/><path class="cls-1" d="M369.31,192.63c.7,0,1,.15.75.38l-15.7,12.38a1.53,1.53,0,0,1-1.08.26h-4.4c-.7,0-1-.15-.75-.38l15.75-12.38a1.53,1.53,0,0,1,1.08-.26Z" transform="translate(-71.03 -71.03)"/><rect class="cls-1" x="253.65" y="253.76" width="4.81" height="60.33" rx="2.4" ry="2.4" transform="translate(-178.69 95.04) rotate(-30)"/><rect class="cls-1" x="253.65" y="205.65" width="4.81" height="60.33" rx="2.4" ry="2.4" transform="translate(81.18 -167.47) rotate(30)"/><rect class="cls-1" x="503.65" y="205.65" width="4.81" height="60.33" rx="2.4" ry="2.4" transform="translate(991.19 115.98) rotate(150)"/><rect class="cls-1" x="503.65" y="253.76" width="4.81" height="60.33" rx="2.4" ry="2.4" transform="translate(731.32 711.81) rotate(-150)"/><path class="cls-1" d="M480.62,251c-1.12-1.12-2.19-2.25-3.73-3.91a16.33,16.33,0,0,1-11.66,4.56c-7.76,0-12.26-5.21-12.26-11.19,0-5.45,3.25-9.18,7.81-11.66v-.18a13.71,13.71,0,0,1-3.32-8.35,9.68,9.68,0,0,1,10.12-9.83c5,0,8.82,3.32,8.82,8.47,0,4.2-2.42,7.52-8.76,10.65v.18c3.37,3.91,7.16,8.29,9.71,11.13,1.83-2.78,3.08-6.63,3.85-11.67h4.73c-1.07,6.28-2.78,11.25-5.74,14.75,2.13,2.25,4.2,4.5,6.57,7Zm-6.28-6.87c-2.37-2.6-6.81-7.46-11.25-12.55-2.13,1.36-5.15,3.91-5.15,8.11a7.87,7.87,0,0,0,8.17,8.06A11.15,11.15,0,0,0,474.35,244.09Zm-12.13-24.33c0,2.84,1.3,5,3,7.16,4-2.31,6.63-4.44,6.63-7.81,0-2.43-1.36-5.15-4.62-5.15S462.21,216.68,462.21,219.76Z" transform="translate(-71.03 -71.03)"/></g></svg>