<svg id="flim." xmlns="http://www.w3.org/2000/svg" viewBox="0 0 149.5 92"><defs><style>.cls-1{fill:#fff;}</style></defs><title>flim</title><path id="f" class="cls-1" d="M430.14,328.66v-11.5a23,23,0,0,0-23,23v23h11.5v-11.5h11.5v-11.5h-11.5A11.5,11.5,0,0,1,430.14,328.66Z" transform="translate(-407.14 -294.16)"/><rect id="l" class="cls-1" x="34.5" y="23" width="11.5" height="46"/><g id="i"><rect class="cls-1" x="57.5" y="46" width="11.5" height="23"/><circle class="cls-1" cx="63.25" cy="34.5" r="5.75"/></g><path id="m" class="cls-1" d="M516.39,334.41a17.16,17.16,0,0,0-8.62,2.31,17.16,17.16,0,0,0-8.63-2.31h-11.5v28.75h11.5V345.91a5.75,5.75,0,0,1,5.75,5.75h0v11.5h11.5V345.91a5.75,5.75,0,0,1,5.75,5.75h0v11.5h11.5v-11.5A17.25,17.25,0,0,0,516.39,334.41Z" transform="translate(-407.14 -294.16)"/><rect id="Point" class="cls-1" x="138" y="57.5" width="11.5" height="11.5"/><rect id="Point-2" data-name="Point" class="cls-1" y="80.5" width="149.5" height="11.5"/><rect id="Point-3" data-name="Point" class="cls-1" width="149.5" height="11.5"/></svg>