<svg id="Calque_1" data-name="Calque 1" xmlns="http://www.w3.org/2000/svg" viewBox="0 0 175.67 136"><defs><style>.cls-1{fill:#fff;}</style></defs><title>mixEatUp</title><path class="cls-1" d="M297.42,149.21c-1.5-4.62-.12-10.77-2.92-14.62s-9.12-4.45-13-7.28-6.31-8.63-10.94-10.13c-4.46-1.45-9.86,1.77-14.81,1.77s-10.34-3.21-14.8-1.77c-4.62,1.5-7.09,7.33-10.94,10.13s-10.18,3.39-13,7.28-1.41,10-2.91,14.62c-1.45,4.46-6.23,8.59-6.23,13.54s4.78,9.08,6.23,13.54c1.5,4.62.11,10.77,2.91,14.62s9.12,4.45,13,7.28,6.31,8.63,10.94,10.13c4.46,1.45,9.86-1.76,14.81-1.76s10.35,3.21,14.81,1.76c4.63-1.5,7.09-7.32,10.94-10.13s10.18-3.4,13-7.28,1.42-10,2.92-14.62c1.45-4.46,6.23-8.59,6.23-13.54S298.87,153.67,297.42,149.21Zm-41.67,53.3a39.76,39.76,0,1,1,39.76-39.76A39.8,39.8,0,0,1,255.75,202.5Z" transform="translate(-167.92 -116.8)"/><path class="cls-1" d="M255.75,124.09a38.65,38.65,0,1,0,38.65,38.65A38.7,38.7,0,0,0,255.75,124.09Zm16,45.46-4.84-6.63c-.66-3.06.71-3.43-3.33-10l-1-1.34c-4.95-6.78-10.86-6.39-10.86-6.39-1.53.38-1,1.77-.41,2.61l14.3,19.59a2.08,2.08,0,0,0,.24.27l5.79,7.93c-.1,6-.25,11.19-.32,13.64a1.57,1.57,0,0,1-1.57,1.52h-3.14l-7.19-10.07c.7-.94,2.58-4.24-1-9.53-4.22-6.32-5.57-4.48-5.57-4.48s-.64.27-.17,1c.32.48,2.33,3.56,3.6,5.53l1,1.47A1,1,0,0,1,257,176l0,0a1,1,0,0,1-1.31-.11l-.07-.07v0l-4.8-7.18a1,1,0,0,0-1.41-.19l0,0a1,1,0,0,0-.34,1.35l4.8,7.18v0a1.12,1.12,0,0,1,.11.25v0a1.06,1.06,0,0,1-.49,1.08l0,0a1,1,0,0,1-1.38-.2l0,0,0,0-2.4-3.6-2.23-3.25c-.47-.71-1-.22-1-.22s-2.22.54,2,6.86c3.58,5.36,7.4,4.81,8.48,4.52l5.16,8.3H245a1.57,1.57,0,0,1-1.57-1.57v-5.88l-11.54-24.11s-1.74-4,2.33-5.77a4.81,4.81,0,0,1,6.14,1.58l2.61,5.49.47-13.59s1.68-12.2,13.59-12.2,13.86,7.36,14.32,12C271.82,151.59,271.88,160.8,271.79,169.55Z" transform="translate(-167.92 -116.8)"/><path class="cls-1" d="M177.92,240.34l6-9.15,4-6.17v27.69h-4V238.56l-6,9.15-6-9.15v14.15h-4V225l4,6.17Z" transform="translate(-167.92 -116.8)"/><path class="cls-1" d="M192.23,226.1h4v26.62h-4Z" transform="translate(-167.92 -116.8)"/><path class="cls-1" d="M221,226.12l-7.43,12.79,7.68,13.79-4.82,0L211,243.51l-5.32,9.21h-5.07l7.8-13.81-7.3-12.79h4.82l5.07,8.76,5-8.76Z" transform="translate(-167.92 -116.8)"/><path class="cls-1" d="M238.14,226.24h12.26v4h-8.22v9.78h8.22v4h-8.22v4.6h8.22v4H238.14Z" transform="translate(-167.92 -116.8)"/><path class="cls-1" d="M260.46,249.14,259,252.8h-4.32L265.41,225l10.66,27.77h-4.32l-1.4-3.67Zm1.55-4h6.8l-3.4-8.83Z" transform="translate(-167.92 -116.8)"/><path class="cls-1" d="M274.13,226.1h17.26v4.17h-6.62v22.3h-4v-22.3h-6.62Z" transform="translate(-167.92 -116.8)"/><path class="cls-1" d="M320.4,244.64V226.1h4v18.54a8.07,8.07,0,1,1-16.13,0V226.1h4v18.54a4,4,0,1,0,8.07,0Z" transform="translate(-167.92 -116.8)"/><path class="cls-1" d="M332.78,247v5.66h-4V226.06h4.33a10.49,10.49,0,1,1,0,21Zm0-4h.31a6.51,6.51,0,1,0,0-13h-.31Z" transform="translate(-167.92 -116.8)"/></svg>