<svg id="Calque_1" data-name="Calque 1" xmlns="http://www.w3.org/2000/svg" viewBox="0 0 146.45 110"><defs><style>.cls-1{fill:#fff;}</style></defs><title>rentYourDay</title><path class="cls-1" d="M168,76l-.29.74h-1.05l1.74-4h1.05l1.7,4H170l-.29-.74Zm.89-2.27-.59,1.49h1.16Z" transform="translate(-126.15 -44.5)"/><path class="cls-1" d="M174.81,72.7c1,0,1.63.51,1.63,1.41a1.42,1.42,0,0,1-1.63,1.49h-.73v1.14h-1v-4Zm-.73,2.09h.68c.45,0,.71-.22.71-.65s-.26-.63-.71-.63h-.68Z" transform="translate(-126.15 -44.5)"/><path class="cls-1" d="M180.29,72.7c1,0,1.63.51,1.63,1.41a1.42,1.42,0,0,1-1.63,1.49h-.73v1.14h-1v-4Zm-.73,2.09h.68c.45,0,.71-.22.71-.65s-.26-.63-.71-.63h-.68Z" transform="translate(-126.15 -44.5)"/><path class="cls-1" d="M184.64,76l-.29.74h-1.05l1.74-4h1.05l1.7,4h-1.09l-.29-.74Zm.89-2.27-.59,1.49h1.16Z" transform="translate(-126.15 -44.5)"/><path class="cls-1" d="M191.57,75.6h-.81v1.14h-1v-4h1.8c1.07,0,1.68.51,1.68,1.41a1.35,1.35,0,0,1-.73,1.3l.85,1.33h-1.16Zm0-.81a.61.61,0,0,0,.7-.65c0-.42-.26-.63-.7-.63h-.78v1.28Z" transform="translate(-126.15 -44.5)"/><path class="cls-1" d="M197.34,73.52v3.21h-1V73.52h-1.2v-.83h3.45v.83Z" transform="translate(-126.15 -44.5)"/><path class="cls-1" d="M201.59,73.5v.8h1.92v.81h-1.92v.81h2.2v.81h-3.22v-4h3.16v.81Z" transform="translate(-126.15 -44.5)"/><path class="cls-1" d="M209.55,76.73V74.11l-1,2.22h-.67l-1-2.22v2.62H206v-4h1.12l1.09,2.4,1.1-2.4h1.12v4Z" transform="translate(-126.15 -44.5)"/><path class="cls-1" d="M213.86,73.5v.8h1.92v.81h-1.92v.81h2.2v.81h-3.22v-4H216v.81Z" transform="translate(-126.15 -44.5)"/><path class="cls-1" d="M221.11,76.73l-1.86-2.48v2.48h-1v-4h.9l1.86,2.49V72.7h1v4Z" transform="translate(-126.15 -44.5)"/><path class="cls-1" d="M226.25,73.52v3.21h-1V73.52H224v-.83h3.45v.83Z" transform="translate(-126.15 -44.5)"/><path class="cls-1" d="M232.62,73.1l-.39.8a3,3,0,0,0-1.29-.42c-.27,0-.44.1-.44.29,0,.7,2.13.3,2.13,1.76,0,.81-.71,1.23-1.61,1.23a3,3,0,0,1-1.84-.65l.4-.79a2.51,2.51,0,0,0,1.46.61c.32,0,.52-.12.52-.35,0-.71-2.13-.29-2.13-1.72,0-.74.64-1.22,1.61-1.22A3,3,0,0,1,232.62,73.1Z" transform="translate(-126.15 -44.5)"/><path class="cls-1" d="M180.4,127v3.21h-1V127h-1.2v-.83h3.45V127Z" transform="translate(-126.15 -44.5)"/><path class="cls-1" d="M187.51,128.19a2.19,2.19,0,1,1-2.18-2A2.08,2.08,0,0,1,187.51,128.19Zm-3.31,0a1.17,1.17,0,0,0,1.14,1.2,1.2,1.2,0,1,0-1.14-1.2Z" transform="translate(-126.15 -44.5)"/><path class="cls-1" d="M193.25,128.51a1.85,1.85,0,0,1-3.7,0v-2.34h1v2.34a.81.81,0,0,0,.84.88.79.79,0,0,0,.81-.88v-2.34h1Z" transform="translate(-126.15 -44.5)"/><path class="cls-1" d="M198.3,129.35v.86h-2.74v-4h1v3.18Z" transform="translate(-126.15 -44.5)"/><path class="cls-1" d="M204.46,128.19a2.19,2.19,0,1,1-2.18-2A2.08,2.08,0,0,1,204.46,128.19Zm-3.31,0a1.17,1.17,0,0,0,1.14,1.2,1.2,1.2,0,1,0-1.14-1.2Z" transform="translate(-126.15 -44.5)"/><path class="cls-1" d="M210.2,128.51a1.85,1.85,0,0,1-3.7,0v-2.34h1v2.34a.81.81,0,0,0,.84.88.79.79,0,0,0,.81-.88v-2.34h1Z" transform="translate(-126.15 -44.5)"/><path class="cls-1" d="M215.65,126.58l-.39.8A3,3,0,0,0,214,127c-.27,0-.44.1-.44.29,0,.7,2.13.3,2.13,1.76,0,.81-.71,1.23-1.61,1.23a3,3,0,0,1-1.84-.65l.4-.79a2.51,2.51,0,0,0,1.46.61c.32,0,.52-.12.52-.35,0-.71-2.13-.29-2.13-1.72,0-.74.64-1.22,1.61-1.22A3,3,0,0,1,215.65,126.58Z" transform="translate(-126.15 -44.5)"/><path class="cls-1" d="M218.81,127v.8h1.92v.81h-1.92v.81H221v.81h-3.22v-4h3.16V127Z" transform="translate(-126.15 -44.5)"/><polygon class="cls-1" points="26.64 28.46 75.15 1.88 123.66 28.46 123.66 32.26 125.31 32.26 125.31 27.48 75.15 0 25 27.48 25 44.72 26.64 44.72 26.64 28.46"/><polygon class="cls-1" points="123.66 81.54 75.15 108.12 26.64 81.54 26.64 78.37 25 78.37 25 82.52 75.15 110 125.31 82.52 125.31 60.91 123.66 60.91 123.66 81.54"/><path class="cls-1" d="M134.52,99l.83,6,.21,0c1.83-.25,2.58-2.29,2.31-4.25-.18-1.33-.94-3.35-4.36-2.88-3.18.44-5.25,2.58-4.78,6a4.26,4.26,0,0,0,1.28,2.75c-2.09.29-3.52-.47-3.81-2.56-.47-3.39,2.53-6.75,7.43-7.43,3.73-.51,6.62.82,7,3.85a4.74,4.74,0,0,1-1.47,4.19c1.75.18,2.79,1.32,3.13,3.85.14,1,.29,3,.4,3.85.23,1.7.92,2.48,1.88,2.69a9.11,9.11,0,0,1-2.47.79c-1.7.23-2.6-.55-2.88-2.56-.13-1-.24-3.1-.41-4.33-.26-1.91-.88-3.12-2.5-2.9a3.55,3.55,0,0,0-.85.22l1.35,9.84-3.76.52L130.83,100Z" transform="translate(-126.15 -44.5)"/><path class="cls-1" d="M155.07,108.82l.89-.12c-.64,2.53-2,5.19-5.52,5.68-3,.41-5.38-1-6-5.27-.41-3,.17-7.52,4.52-8.12,3.31-.45,3.73,2,3.81,2.56.43,3.1-1.88,5.09-4.44,5.58.37,2.31,1.12,3.14,3,2.88C153.48,111.72,154.28,110.44,155.07,108.82Zm-5.49-6.5c-1.17.16-1.65,2.72-1.39,5.56a3.51,3.51,0,0,0,2.61-4C150.64,102.65,150.08,102.25,149.58,102.31Z" transform="translate(-126.15 -44.5)"/><path class="cls-1" d="M159.54,102c-1,.14-1.27,1.4-1.21,2.61l1.15,8.37-3.76.52-1.79-13,3.76-.52.19,1.36a3.15,3.15,0,0,1,2.59-1.84c2-.27,3.81.65,4.31,4.3.13.91.29,2.86.41,3.74.2,1.49.52,2.22,1.59,2.07s1.38-1.17,1.49-2.54l1.1-.15c0,4.28-1.66,5.14-3.2,5.36-2.69.37-4.07-1.41-4.48-4.36-.09-.63-.29-2.49-.38-3.16C161,102.61,160.4,101.86,159.54,102Z" transform="translate(-126.15 -44.5)"/><path class="cls-1" d="M170.41,94,171,98.1l1.57-.21.14,1-1.57.21,1.07,7.83c.2,1.46.59,1.75,1.6,1.61a1.11,1.11,0,0,0,.7-.31,3.83,3.83,0,0,1,.1.54,2.09,2.09,0,0,1-1.94,2.5c-2.69.37-3.85-1.12-4.18-3.55l-1.11-8.11-.83.11-.14-1,.83-.11-.49-3.6Z" transform="translate(-126.15 -44.5)"/><path class="cls-1" d="M190.27,95.45l1.66,12.11c1.38-.77,2-1.74,2-4.07l1.1-.15c.16,3.49-1.46,4.69-2.93,5.4l.25,1.85c.51,3.7-1.4,4.71-3,4.93-2,.27-3.78-.63-4-2.45s1.38-3.14,3-3.95l-.2-1.44a3.32,3.32,0,0,1-2.74,1.89c-2.48.34-3.71-1.11-4.05-3.56l-1.26-9.16,3.76-.52,1.22,8.87c.18,1.3.64,1.75,1.32,1.65.94-.13,1.38-1.2,1.3-2.52L186.51,96Zm-2.4,18.19c.63-.09.94-.93.72-2.47l-.1-.76c-1.11.66-2,1.39-1.85,2.22A1.18,1.18,0,0,0,187.87,113.64Z" transform="translate(-126.15 -44.5)"/><path class="cls-1" d="M202.69,97.81l.18,0a6.91,6.91,0,0,0,3.36-2.06l.49.65c-.58,1.2-2.2,2.16-3.75,2.69a6.53,6.53,0,0,1,.12.7c.55,4-.34,7.41-4.1,7.92-2.56.35-5.08-.82-5.69-5.23-.41-3,0-7.58,4.56-8.2C200.24,93.95,201.88,95,202.69,97.81Zm-1.87,2.06-.05-.39a1.16,1.16,0,0,1-1.2-1.16c-.1-.73.11-1.13.48-1.32-.53-1.12-1.18-1.27-1.58-1.22-1.54.21-1.7,3.48-1.37,5.9.43,3.13,1.5,3.57,2.28,3.46C200.88,104.95,201.21,102.72,200.82,99.88Z" transform="translate(-126.15 -44.5)"/><path class="cls-1" d="M214.43,92.14l1.22,8.87c.18,1.3.53,1.76,1.45,1.64,1.33-.18,1.73-1.3,1.69-2.57l1.1-.15c0,4.33-2.36,5.24-3.8,5.44a2.88,2.88,0,0,1-3.44-2.05,3.48,3.48,0,0,1-3.13,3c-2.48.34-3.71-1.11-4-3.56l-1.26-9.16L208,93l1.22,8.87c.18,1.3.64,1.75,1.32,1.65.94-.13,1.51-1.22,1.33-2.52l-1.15-8.37Z" transform="translate(-126.15 -44.5)"/><path class="cls-1" d="M221.13,91.22l.22,1.62a4.05,4.05,0,0,1,2.58-2.13,2.38,2.38,0,0,1,2.56,2,1.45,1.45,0,0,1-1.3,1.75c-1.57.22-1.22-1.51-2.21-1.37-.52.07-1,.58-1.42,1.26l1.36,9.91-3.76.52-1.79-13Z" transform="translate(-126.15 -44.5)"/><path class="cls-1" d="M242.83,82.92,244.76,97c.2,1.46.59,1.75,1.6,1.61s1.61-1.23,1.54-2.55l1.1-.15c0,4.33-2.36,5.24-3.77,5.43a2.89,2.89,0,0,1-3.43-2,3.63,3.63,0,0,1-3,2.86c-2.19.3-4.8-.88-5.42-5.42-.44-3.18.36-7.46,4-8a2.33,2.33,0,0,1,2.64,1L239.15,84Zm-2.7,8.24a1.36,1.36,0,0,0-1.42-.84c-1.7.23-1.91,3.48-1.6,5.75.51,3.7,1.79,3.58,2.45,3.49s1.59-1,1.38-2.53Z" transform="translate(-126.15 -44.5)"/><path class="cls-1" d="M257.28,86.26l1.22,8.87c.2,1.46.59,1.75,1.6,1.61s1.61-1.23,1.54-2.55l1.1-.15c0,4.33-2.36,5.24-3.77,5.43a2.89,2.89,0,0,1-3.43-2,3.63,3.63,0,0,1-3,2.86c-2.19.3-4.8-.88-5.42-5.42-.44-3.18.36-7.46,4-8a2.33,2.33,0,0,1,2.64,1l-.17-1.25Zm-3.41,3a1.35,1.35,0,0,0-1.42-.84c-1.7.23-1.92,3.48-1.6,5.75.51,3.7,1.79,3.58,2.45,3.49s1.59-1,1.38-2.53Z" transform="translate(-126.15 -44.5)"/><path class="cls-1" d="M270.44,84.45l2.08,15.13c.51,3.7-1.4,4.71-3,4.93-2,.28-3.78-.62-4-2.45s1.38-3.14,3-3.95l-.2-1.44a3.32,3.32,0,0,1-2.74,1.89c-2.48.34-3.71-1.11-4.05-3.56l-1.26-9.16,3.76-.52,1.22,8.87c.18,1.3.64,1.75,1.32,1.65.94-.13,1.38-1.2,1.3-2.52L266.68,85ZM268,102.64c.63-.09.94-.93.72-2.47l-.1-.76c-1.11.66-2,1.39-1.85,2.22A1.18,1.18,0,0,0,268,102.64Z" transform="translate(-126.15 -44.5)"/></svg>