<svg xmlns="http://www.w3.org/2000/svg" viewBox="0 0 198.12 85.44"><defs><style>.cls-1{fill:#fff;}</style></defs><title>nuitDigitale</title><g id="D"><rect class="cls-1" x="114.26" y="0.04" width="20.18" height="59.42"/><polygon class="cls-1" points="138.07 0 138.07 28.27 167.84 28.27 138.07 0"/><polygon class="cls-1" points="138.07 59.36 138.07 31.27 167.69 31.27 138.07 59.36"/></g><g id="N"><polygon class="cls-1" points="48.07 22.49 48.07 59.27 88.06 59.27 48.07 22.49"/><polygon class="cls-1" points="104.07 37.96 104.07 0.27 63.48 0.27 104.07 37.96"/><polygon class="cls-1" points="103.99 42.95 103.99 59.47 93.25 59.47 48.99 18.02 48.4 17.46 48.34 0.04 58.16 0.04 103.99 42.95 103.99 42.95"/><path class="cls-1" d="M104.77,211.18H97.92V196.69h3.91v11h2.94Z" transform="translate(-97.92 -125.74)"/><path class="cls-1" d="M120.72,211.18h-4l-.29-1.84h-2.64l-.32,1.84h-4l3.48-14.48h4.78Zm-4.79-4.89-.25-1.69a1.65,1.65,0,0,1,0-.25q0-.21-.2-1.63c0-.11,0-.25,0-.44l-.08-.7-.12-1.37c0,.13,0,.28-.05.44l-.07.54q-.07.58-.09.81c0,.15,0,.24,0,.27l-.27,1.75-.39,2.27Z" transform="translate(-97.92 -125.74)"/><path class="cls-1" d="M135.31,211.18V196.69H139l2,5.08.36,1q.2.58.45,1.34l.4,1.28q-.22-1.89-.33-3.23t-.11-2.25v-3.25h3.77v14.48h-3.77l-2.09-5.33q-.33-.85-.59-1.6t-.46-1.42q.23,1.53.34,2.66t.11,2v3.7Z" transform="translate(-97.92 -125.74)"/><path class="cls-1" d="M157.29,196.69h3.91v10.07a4.47,4.47,0,0,1-.4,2,4,4,0,0,1-1.31,1.48,5,5,0,0,1-3,.88,5.62,5.62,0,0,1-3.37-1,4.57,4.57,0,0,1-1.73-4v-9.52h3.91V206a2.8,2.8,0,0,0,.23,1.33,1,1,0,0,0,1.55,0,3,3,0,0,0,.22-1.35Z" transform="translate(-97.92 -125.74)"/><path class="cls-1" d="M171,211.18h-3.91V196.69H171Z" transform="translate(-97.92 -125.74)"/><path class="cls-1" d="M181.9,211.18H178v-11h-2.16v-3.47h8.31v3.47H181.9Z" transform="translate(-97.92 -125.74)"/><path class="cls-1" d="M198.62,211.18V196.69H202a6.23,6.23,0,0,1,4.51,1.56,7.52,7.52,0,0,1,2.12,5.69,8,8,0,0,1-1.79,5.56,5.88,5.88,0,0,1-4.56,1.67Zm3.91-3.47q2.1-.1,2.1-3.62a5.87,5.87,0,0,0-.53-2.74,1.61,1.61,0,0,0-1.44-1h-.12Z" transform="translate(-97.92 -125.74)"/><path class="cls-1" d="M218,211.18h-3.91V196.69H218Z" transform="translate(-97.92 -125.74)"/><path class="cls-1" d="M229,202.8h5.46v.58q0,4.06-1.25,5.84a4.59,4.59,0,0,1-4,1.95,4.93,4.93,0,0,1-4.11-1.9,8.42,8.42,0,0,1-1.48-5.27,8.64,8.64,0,0,1,1.49-5.35,4.85,4.85,0,0,1,4.08-2q3.43,0,5,3.56l-3.79,1.39a2.21,2.21,0,0,0-.39-1.08.93.93,0,0,0-.76-.4q-1.61,0-1.61,4.17a6.78,6.78,0,0,0,.36,2.57,1.22,1.22,0,0,0,1.7.67,1.2,1.2,0,0,0,.43-.37,1.87,1.87,0,0,0,.27-.58,2.8,2.8,0,0,0,.1-.77H229Z" transform="translate(-97.92 -125.74)"/><path class="cls-1" d="M243.84,211.18h-3.91V196.69h3.91Z" transform="translate(-97.92 -125.74)"/><path class="cls-1" d="M254.76,211.18h-3.91v-11h-2.16v-3.47H257v3.47h-2.24Z" transform="translate(-97.92 -125.74)"/><path class="cls-1" d="M271.94,211.18h-4l-.29-1.84H265l-.32,1.84h-4l3.48-14.48h4.78Zm-4.79-4.89-.25-1.69a1.48,1.48,0,0,1,0-.25q0-.21-.2-1.63c0-.11,0-.25,0-.44l-.07-.7-.12-1.37c0,.13,0,.28-.05.44l-.07.54-.09.81c0,.15,0,.24,0,.27l-.27,1.75-.39,2.27Z" transform="translate(-97.92 -125.74)"/><path class="cls-1" d="M283.76,211.18h-6.85V196.69h3.91v11h2.94Z" transform="translate(-97.92 -125.74)"/><path class="cls-1" d="M288.77,211.18V196.69H296v3.47h-3.36V202h3v3.47h-3v2.22H296v3.47Z" transform="translate(-97.92 -125.74)"/></g></svg>