<svg id="Calque_1" data-name="Calque 1" xmlns="http://www.w3.org/2000/svg" viewBox="0 0 328.82 46"><defs><style>.cls-1{fill:#fff;}</style></defs><title>staticSwim</title><path class="cls-1" d="M232.24,169.16l.62,1.18a32.94,32.94,0,0,0,3.17,5.13,11.72,11.72,0,0,0,2.91,2.68,9.63,9.63,0,0,0,3.6,1.31,40.24,40.24,0,0,0,6.33.37,57.53,57.53,0,0,0,7-.28,8.6,8.6,0,0,0,3.11-1,11.39,11.39,0,0,0,2.76-2.37,35,35,0,0,0,4.46-6.68,17.39,17.39,0,0,0,2.1-5.2,2.76,2.76,0,0,0-1.13-2.69,9.37,9.37,0,0,0-4-1.18c-1.88-.21-5.81-.41-11.66-.59-7.16-.21-11.08-.42-12-.63a2.89,2.89,0,0,1-2.29-2.24,2.09,2.09,0,0,1,.11-1.64,1.83,1.83,0,0,1,1.23-.79,56.91,56.91,0,0,1,8.59-.36h1.11c4.39,0,7.31.06,8.67.14a7.76,7.76,0,0,1,2.84.52,1.41,1.41,0,0,1,.8,1,4.88,4.88,0,0,1-.13,1.65l10.91,0,.73-1.38c1.44-2.82,1.73-4.83.87-6s-3.52-2-7.62-2.4c-2.72-.28-7.63-.43-14.6-.46-9.86,0-16.42.1-19.5.4s-5,1-5.94,2.12c-1.11,1.38-.75,3.88,1.09,7.43a19.26,19.26,0,0,0,5.35,6.86,10.34,10.34,0,0,0,3.62,1.78,24.18,24.18,0,0,0,5.33.68c1.22,0,3.77.16,7.4.35s6,.3,7.12.3a5.23,5.23,0,0,1,2.89.59c.45.38.53,1.08.23,2.14a3.74,3.74,0,0,1-1.67,2.56,4.8,4.8,0,0,1-1.73.38c-.67,0-2.59.06-5.88.07s-5-.08-5.57-.14a3.55,3.55,0,0,1-1.67-.57,5.36,5.36,0,0,1-1.64-3Z" transform="translate(-223.11 -139.49)"/><path class="cls-1" d="M242.44,181.61c.6,1,2.53,3.88,5.73,3.88h1.77c3.21,0,5-2.78,5.59-3.79a66.34,66.34,0,0,1-6.86.25,45.33,45.33,0,0,1-6.24-.33Z" transform="translate(-223.11 -139.49)"/><path class="cls-1" d="M247.39,145h3.26c7.14,0,12,.18,14.79.47,4.7.47,7.53,1.44,8.88,3a11.66,11.66,0,0,0,.53-3.22,4,4,0,0,0-.55-2.23c-1.32-1.61-4.14-2.59-8.87-3.07-2.81-.29-7.65-.44-14.78-.47h-3.26c-8.21,0-13.58.14-16.43.42-3.54.35-5.89,1.26-7.18,2.78a5.3,5.3,0,0,0-.66,2.62,7,7,0,0,0,.64,2.86c1.31-1.51,3.66-2.42,7.2-2.77,2.84-.28,8.22-.42,16.44-.42Z" transform="translate(-223.11 -139.49)"/><path class="cls-1" d="M289.59,167.55v.36a7,7,0,0,0,.39,2.74,2.87,2.87,0,0,0,1.37,1.31,9.77,9.77,0,0,0,3.12.71c1.46.14,3.73.21,6.76.21,3.63,0,6.14-.05,7.49-.16a9.16,9.16,0,0,0,2.76-.57,3.16,3.16,0,0,0,1.4-1.19,7.05,7.05,0,0,0,.71-3.59,7.28,7.28,0,0,0-.42-2.82,3,3,0,0,0-1.37-1.42,7.42,7.42,0,0,0-2.46-.63c-1.12-.12-3.33-.22-6.59-.31a61.65,61.65,0,0,1-6.72-.35,1.41,1.41,0,0,1-1.25-1.48,1.47,1.47,0,0,1,1.25-1.57,12.16,12.16,0,0,1,2.4-.06c.83,0,1.69,0,2.68,0l15-.07v13.62h5.51V158.7H331L333.2,155H302.11a78.52,78.52,0,0,0-8.39.27,4.77,4.77,0,0,0-2.79,1.12c-.77.75-1.17,2.1-1.17,4a5.1,5.1,0,0,0,1,3.6,3.37,3.37,0,0,0,1.64.88,15.14,15.14,0,0,0,3.33.36l.36,0,4.62.18c2.51.11,4.11.16,4.86.16a5.05,5.05,0,0,1,2.24.36,1.6,1.6,0,0,1,.74,1.52c0,1.22-.56,1.68-1,1.85a4.8,4.8,0,0,1-1.42.24c-.53,0-2.08,0-4.77,0-2.51,0-4,0-4.53-.08a3.27,3.27,0,0,1-1.39-.37,2,2,0,0,1-.84-1.67Z" transform="translate(-223.11 -139.49)"/><path class="cls-1" d="M348.68,172.32h5.87L344.44,155h-9.08l-10.26,17.28H331l1.75-3.08h14.15l1.75,3.08Zm-3.38-6.11H334.43l4.51-7.91h1.86l4.5,7.91Z" transform="translate(-223.11 -139.49)"/><path class="cls-1" d="M358.1,172.32h5.51V158.7h9.09V155H346.57l2.2,3.67h9.33v13.62Z" transform="translate(-223.11 -139.49)"/><path class="cls-1" d="M374.66,172.32h5.51V155h-5.51v17.28Z" transform="translate(-223.11 -139.49)"/><path class="cls-1" d="M396.62,154.76a66,66,0,0,0-10.41.52,4.06,4.06,0,0,0-3.1,2,6.12,6.12,0,0,0-.48,2c-.09.94-.14,2.46-.14,4.54s0,3.62.14,4.44a5.26,5.26,0,0,0,.65,2.22,3.27,3.27,0,0,0,1.46,1.22,11.28,11.28,0,0,0,3.55.72c1.58.13,4.29.2,8.28.2a43.13,43.13,0,0,0,7.72-.47,3.85,3.85,0,0,0,2.7-1.58,6.1,6.1,0,0,0,.64-3.06c0-.21,0-.62,0-1.23h-5.24a2.9,2.9,0,0,1-.74,2.06,3.36,3.36,0,0,1-1.91.59c-.82.07-2.49.11-4.82.11-1.87,0-3.28,0-4.11-.13a4,4,0,0,1-1.92-.57,2.39,2.39,0,0,1-1-1.52,15.14,15.14,0,0,1-.2-3,15.72,15.72,0,0,1,.22-3.12,2.65,2.65,0,0,1,1-1.65,3.89,3.89,0,0,1,1.85-.55c.78-.08,2.12-.12,4.1-.12s3.45,0,4.45.13a4.37,4.37,0,0,1,2.09.52l.44.62a3.73,3.73,0,0,1,.18,1h5.24v-.21a7.89,7.89,0,0,0-.52-3.39,3.13,3.13,0,0,0-1.7-1.51,9.85,9.85,0,0,0-2.71-.57c-1.23-.11-3.21-.16-5.7-.16Z" transform="translate(-223.11 -139.49)"/><path class="cls-1" d="M419.67,167.55v.36a6.9,6.9,0,0,0,.4,2.74,2.82,2.82,0,0,0,1.36,1.31,9.64,9.64,0,0,0,3.12.71c1.42.14,3.63.21,6.76.21,3.63,0,6.15-.05,7.5-.16a8.84,8.84,0,0,0,2.76-.57A3.12,3.12,0,0,0,443,171a7.05,7.05,0,0,0,.7-3.58,7.33,7.33,0,0,0-.41-2.83,3,3,0,0,0-1.37-1.42,7.44,7.44,0,0,0-2.46-.63c-1.13-.12-3.41-.22-6.58-.3a53.41,53.41,0,0,1-6.72-.36,1.39,1.39,0,0,1-1.26-1.48,1.47,1.47,0,0,1,1.25-1.57,12.12,12.12,0,0,1,2.4-.06h.37c.66,0,1.44,0,2.31,0l11.66,0,5.72,13.57h8.92l4.44-14.68,4.49,14.68h8.89L482.83,155h-5.48l-5.52,13.68h-1.9l-.07-.23L465.28,155h-6.77l-4.63,13.68H452L446.52,155H432.21a82.43,82.43,0,0,0-8.4.27,4.77,4.77,0,0,0-2.78,1.12c-.78.75-1.17,2.1-1.17,4a5.1,5.1,0,0,0,1,3.6,3.34,3.34,0,0,0,1.64.88,14.83,14.83,0,0,0,3.33.36l5,.2c2.47.11,4.1.16,4.86.16a5.26,5.26,0,0,1,2.25.37,1.59,1.59,0,0,1,.74,1.53c0,1.2-.55,1.66-1,1.84a5.27,5.27,0,0,1-1.43.24c-.51,0-2,0-4.76,0-2.53,0-4,0-4.53-.08a3.12,3.12,0,0,1-1.39-.36,2,2,0,0,1-.85-1.68Z" transform="translate(-223.11 -139.49)"/><path class="cls-1" d="M491,173h0m-6.16-.65h5.51V155h-5.51v17.28Z" transform="translate(-223.11 -139.49)"/><path class="cls-1" d="M521.6,172.32h5.11V155h-10.4l-6.41,12.49L503.5,155H493v17.28h5.1L498,158.64h1.92l.1.16,7.62,13.52h4.56l7.72-13.68h1.85l-.15,13.68Z" transform="translate(-223.11 -139.49)"/><path class="cls-1" d="M532.16,143.18h7.76v.71H536.5v5.34h-.91V143.9h-3.43Z" transform="translate(-223.11 -139.49)"/><path class="cls-1" d="M540.94,143.18h1.82l3.7,5.13,3.65-5.13h1.83v6.05H551v-5.3h-.38l-3.81,5.3h-.74l-3.85-5.3h-.4v5.3h-.91Z" transform="translate(-223.11 -139.49)"/></svg>