<svg id="Calque_1" data-name="Calque 1" xmlns="http://www.w3.org/2000/svg" viewBox="0 0 161.13 92"><defs><style>.cls-1{fill:#fff;}</style></defs><title>staticSwim1</title><path class="cls-1" d="M228,285.27l12,0c.59,2.27,1.36,3.73,2.28,4.38a4.76,4.76,0,0,0,2.24.77q1.28.12,7.95.19,7,0,8.4-.1a6.56,6.56,0,0,0,2.36-.51c.94-.43,1.68-1.58,2.22-3.46.38-1.36.32-2.28-.23-2.74s-1.87-.71-3.94-.77c-1.61,0-5-.15-10.21-.43-5.4-.28-8.94-.45-10.58-.5a34.82,34.82,0,0,1-7.71-1,15,15,0,0,1-5.29-2.59c-2.74-2-5.36-5.3-7.76-9.93-2.69-5.2-3.23-8.86-1.52-11,1.4-1.66,4.31-2.7,8.72-3.14s13.79-.64,28-.58q15,.05,20.94.65c6,.61,9.7,1.79,11.14,3.56s.9,4.72-1.22,8.88q-.29.57-1.14,2.15l-16.2-.05a8,8,0,0,0,.26-2.62,1.71,1.71,0,0,0-1-1.15,11,11,0,0,0-3.93-.71q-2.91-.16-12.4-.19-11.44,0-13.82.5T235.87,268a3.82,3.82,0,0,0,3,3c1.3.3,7,.59,17.13.9q12.65.38,16.73.84a13.65,13.65,0,0,1,5.94,1.75,4.29,4.29,0,0,1,1.74,4.16c-.24,1.75-1.26,4.27-3,7.56A50.45,50.45,0,0,1,271,295.8a16.48,16.48,0,0,1-4,3.45,12.57,12.57,0,0,1-4.57,1.54,82.24,82.24,0,0,1-10,.4,57.38,57.38,0,0,1-9.11-.54,14,14,0,0,1-5.27-1.93,17.06,17.06,0,0,1-4.24-3.91,47.33,47.33,0,0,1-4.58-7.4Z" transform="translate(-173.41 -242.77)"/><path class="cls-1" d="M253.89,309.28c5.88,0,8.57-6.14,8.57-6.14a83.73,83.73,0,0,1-10.38.43h0a59.16,59.16,0,0,1-9.52-.57s2.91,6.29,8.8,6.29Z" transform="translate(-173.41 -242.77)"/><path class="cls-1" d="M289,248l-.22.15.2-.17c-2-2.42-6.1-3.82-12.91-4.51-4-.41-11-.63-21.19-.67h-4.66c-11.78,0-19.47.2-23.57.61-5.12.51-8.56,1.82-10.5,4.11l.2.17-.23-.13a7.94,7.94,0,0,0-1,3.91,10.28,10.28,0,0,0,1,4.32l.18.34.25-.3c1.79-2.12,5.08-3.42,10.15-3.92,4-.4,11.74-.6,23.51-.6h4.66c10.22,0,17.14.26,21.14.67,6.78.68,10.76,2.1,12.56,4.33l.3.37.15-.45a17.25,17.25,0,0,0,.81-4.82A6,6,0,0,0,289,248Z" transform="translate(-173.41 -242.77)"/><path class="cls-1" d="M173.41,331.44v.22a4.3,4.3,0,0,0,.24,1.68,1.76,1.76,0,0,0,.84.81,6,6,0,0,0,1.92.44c.89.08,2.29.13,4.15.13,2.23,0,3.77,0,4.6-.1a5.62,5.62,0,0,0,1.7-.35,1.94,1.94,0,0,0,.86-.73,4.33,4.33,0,0,0,.43-2.2,4.47,4.47,0,0,0-.26-1.73,1.85,1.85,0,0,0-.84-.87,4.56,4.56,0,0,0-1.51-.39c-.69-.07-2-.14-4-.19a37.87,37.87,0,0,1-4.13-.21.86.86,0,0,1-.77-.91.9.9,0,0,1,.77-1,7.47,7.47,0,0,1,1.47,0l1.65,0,9.23,0v8.36h3.38V326h5.72l1.38-2.25H181.11a48.23,48.23,0,0,0-5.15.16,2.93,2.93,0,0,0-1.71.69,3.4,3.4,0,0,0-.72,2.47,3.13,3.13,0,0,0,.62,2.21,2.07,2.07,0,0,0,1,.54,9.3,9.3,0,0,0,2,.22h.22l2.84.11c1.54.07,2.52.1,3,.1a3.1,3.1,0,0,1,1.38.22,1,1,0,0,1,.46.93c0,.75-.34,1-.63,1.13a3,3,0,0,1-.87.15l-2.93,0c-1.54,0-2.48,0-2.78,0a2,2,0,0,1-.85-.23,1.24,1.24,0,0,1-.52-1Z" transform="translate(-173.41 -242.77)"/><path class="cls-1" d="M209.71,334.37h3.61l-6.21-10.61h-5.57l-6.3,10.61h3.64l1.07-1.89h8.69l1.08,1.89Zm-2.07-3.75H201l2.77-4.86h1.14l2.77,4.86Z" transform="translate(-173.41 -242.77)"/><path class="cls-1" d="M215.49,334.37h3.38V326h5.58v-2.25H208.41l1.35,2.25h5.73v8.36Z" transform="translate(-173.41 -242.77)"/><path class="cls-1" d="M225.66,334.37H229V323.76h-3.38v10.61Z" transform="translate(-173.41 -242.77)"/><path class="cls-1" d="M239.16,323.59a40.52,40.52,0,0,0-6.39.32,2.49,2.49,0,0,0-1.91,1.22,3.76,3.76,0,0,0-.29,1.23c-.06.57-.08,1.51-.08,2.79s0,2.22.08,2.73a3.23,3.23,0,0,0,.4,1.37,2,2,0,0,0,.9.75,6.93,6.93,0,0,0,2.18.44c1,.08,2.63.12,5.08.12a26.49,26.49,0,0,0,4.74-.29,2.37,2.37,0,0,0,1.66-1,3.75,3.75,0,0,0,.39-1.88c0-.13,0-.38,0-.76h-3.22a1.78,1.78,0,0,1-.45,1.26,2.06,2.06,0,0,1-1.17.36c-.5,0-1.53.07-3,.07-1.15,0-2,0-2.52-.08a2.48,2.48,0,0,1-1.18-.35,1.47,1.47,0,0,1-.59-.93,9.3,9.3,0,0,1-.12-1.87,9.66,9.66,0,0,1,.14-1.92,1.63,1.63,0,0,1,.6-1,2.39,2.39,0,0,1,1.13-.34c.48,0,1.3-.07,2.52-.07s2.12,0,2.74.08a2.68,2.68,0,0,1,1.29.32l.27.38a2.29,2.29,0,0,1,.11.61h3.22V327a4.85,4.85,0,0,0-.32-2.08,1.92,1.92,0,0,0-1-.93,6,6,0,0,0-1.66-.35c-.76-.07-2-.1-3.5-.1Z" transform="translate(-173.41 -242.77)"/><path class="cls-1" d="M253.31,331.44v.22a4.24,4.24,0,0,0,.25,1.68,1.73,1.73,0,0,0,.84.81,5.92,5.92,0,0,0,1.92.44c.87.09,2.23.13,4.15.13,2.23,0,3.78,0,4.61-.1a5.43,5.43,0,0,0,1.69-.35,1.91,1.91,0,0,0,.86-.73,4.33,4.33,0,0,0,.43-2.2,4.5,4.5,0,0,0-.25-1.74,1.83,1.83,0,0,0-.84-.87,4.57,4.57,0,0,0-1.51-.39c-.7-.07-2.1-.14-4-.19a32.81,32.81,0,0,1-4.13-.22.86.86,0,0,1-.77-.91.9.9,0,0,1,.77-1,7.45,7.45,0,0,1,1.47,0H259l1.42,0h7.16l3.51,8.33h5.48l2.73-9,2.76,9h5.46l4.62-10.61h-3.36l-3.39,8.4h-1.17l0-.14-2.81-8.26h-4.16l-2.84,8.4h-1.16l-3.37-8.4H261a50.63,50.63,0,0,0-5.16.16,2.93,2.93,0,0,0-1.71.69,3.37,3.37,0,0,0-.72,2.47,3.13,3.13,0,0,0,.62,2.21,2,2,0,0,0,1,.54,9.11,9.11,0,0,0,2,.22l3.06.12c1.52.07,2.52.1,3,.1a3.23,3.23,0,0,1,1.38.23,1,1,0,0,1,.46.94c0,.74-.34,1-.62,1.13a3.24,3.24,0,0,1-.88.15l-2.93,0c-1.55,0-2.49,0-2.78,0a1.92,1.92,0,0,1-.85-.22,1.24,1.24,0,0,1-.52-1Z" transform="translate(-173.41 -242.77)"/><path class="cls-1" d="M297.12,334.77h0m-3.78-.4h3.38V323.76h-3.38v10.61Z" transform="translate(-173.41 -242.77)"/><path class="cls-1" d="M315.92,334.37h3.14V323.76h-6.39l-3.93,7.67-3.93-7.67h-6.42v10.61h3.13l-.09-8.4h1.18l.06.1,4.68,8.31h2.8l4.74-8.4H316l-.09,8.4Z" transform="translate(-173.41 -242.77)"/><path class="cls-1" d="M322.4,316.48h4.76v.44h-2.1v3.28h-.56v-3.28H322.4Z" transform="translate(-173.41 -242.77)"/><path class="cls-1" d="M327.79,316.48h1.12l2.27,3.15,2.24-3.15h1.12v3.72H334v-3.25h-.23l-2.34,3.25H331l-2.36-3.25h-.25v3.25h-.56Z" transform="translate(-173.41 -242.77)"/></svg>